<svg id="Capa_1" data-name="Capa 1" xmlns="http://www.w3.org/2000/svg" viewBox="0 0 238.31 52.46"><title>logo</title><g id="_Grupo_" data-name="&lt;Grupo&gt;"><g id="_Grupo_2" data-name="&lt;Grupo&gt;"><path id="_Trazado_" data-name="&lt;Trazado&gt;" d="M228.84,35.63c0,6.87-4.92,12.48-12,12.48s-12.14-5.73-12.14-12.6h-9.22v.11c0,11.39,8.87,20.61,21.24,20.61s21.36-9.33,21.36-20.73h-9.22Z" transform="translate(-0.96 -5)" fill="#002d3a"/><polygon id="_Trazado_2" data-name="&lt;Trazado&gt;" points="216.62 12.47 210.38 6.24 216.62 0.01 222.85 6.24 222.85 6.24 216.62 0 194.93 21.69 207.39 21.69 216.62 12.47" fill="#a70e13"/><polygon id="_Trazado_3" data-name="&lt;Trazado&gt;" points="210.38 6.24 216.62 12.47 225.84 21.69 238.31 21.69 222.85 6.24 216.62 0.01 210.38 6.24" fill="#ba141a"/><path id="_Trazado_4" data-name="&lt;Trazado&gt;" d="M11.39,26.83c0-6.87,4.92-12.48,12-12.48s12.14,5.73,12.14,12.6h9.22v-.11c0-11.39-8.87-20.61-21.24-20.61S2.17,15.55,2.17,26.94h9.22Z" transform="translate(-0.96 -5)" fill="#002d3a"/><polygon id="_Trazado_5" data-name="&lt;Trazado&gt;" points="21.69 39.99 27.92 46.22 21.69 52.45 15.46 46.22 15.45 46.23 21.69 52.46 43.38 30.77 30.91 30.77 21.69 39.99" fill="#006c6d"/><polygon id="_Trazado_6" data-name="&lt;Trazado&gt;" points="27.92 46.22 21.69 39.99 12.47 30.77 0 30.77 15.46 46.22 21.69 52.45 27.92 46.22" fill="#00a76d"/><rect id="_Rectángulo_" data-name="&lt;Rectángulo&gt;" x="212.75" y="22.94" width="2.99" height="2.99" fill="#002d3a"/><rect id="_Rectángulo_2" data-name="&lt;Rectángulo&gt;" x="216.68" y="22.94" width="2.99" height="2.99" fill="#002d3a"/><rect id="_Rectángulo_3" data-name="&lt;Rectángulo&gt;" x="212.75" y="27.15" width="2.99" height="2.99" fill="#002d3a"/><rect id="_Rectángulo_4" data-name="&lt;Rectángulo&gt;" x="216.68" y="27.15" width="2.99" height="2.99" fill="#002d3a"/><circle id="_Trazado_7" data-name="&lt;Trazado&gt;" cx="22.45" cy="22.91" r="4.77" fill="#002d3a"/><text transform="translate(47.39 30.45)" font-size="18" fill="#002d3a" font-family="Barlow-ExtraBold, Barlow" font-weight="700">GPS <tspan x="36.16" y="0" letter-spacing="-0.02em">A</tspan><tspan x="48.35" y="0">U</tspan><tspan x="59.56" y="0" letter-spacing="-0.02em">T</tspan><tspan x="69.82" y="0" letter-spacing="0em">O</tspan><tspan x="80.96" y="0" letter-spacing="-0.01em">-</tspan><tspan x="88.24" y="0">T</tspan><tspan x="98.86" y="0" letter-spacing="0.01em">R</tspan><tspan x="110.03" y="0" letter-spacing="-0.03em">A</tspan><tspan x="122.08" y="0">CK</tspan></text><text transform="translate(63.69 37.81)" font-size="8" fill="#002d3a" font-family="Barlow-ExtraBoldItalic, Barlow" font-weight="700" font-style="italic">GPS DE <tspan x="26.4" y="0" letter-spacing="0.01em">R</tspan><tspan x="31.22" y="0" letter-spacing="-0.05em">A</tspan><tspan x="36.23" y="0" letter-spacing="0em">S</tspan><tspan x="40.85" y="0">TREO &amp; MONI</tspan><tspan x="85.73" y="0" letter-spacing="-0.02em">T</tspan><tspan x="90.15" y="0">OREO</tspan></text></g></g></svg>