<svg id="Layer_1" data-name="Layer 1" xmlns="http://www.w3.org/2000/svg" viewBox="0 0 1384.9 369.55"><title>LOGO AUTO TRACK GPS DE RASTREO Y MONITOREO</title><g id="_Grupo_" data-name="&lt;Grupo&gt;"><g id="_Grupo_2" data-name="&lt;Grupo&gt;"><path id="_Trazado_" data-name="&lt;Trazado&gt;" d="M1420.08,207.86c0,31.16-22.33,56.62-54.54,56.62s-55.06-26-55.06-57.14h-41.81v.52c0,51.68,40.25,93.49,96.35,93.49s96.87-42.33,96.87-94h-41.81Z" transform="translate(-82.49 -68.91)" fill="#002d3a"/><polygon id="_Trazado_2" data-name="&lt;Trazado&gt;" points="1286.51 56.58 1258.24 28.31 1286.52 0.03 1314.79 28.3 1314.81 28.28 1286.52 0 1188.12 98.41 1244.68 98.41 1286.51 56.58" fill="#a70e13"/><polygon id="_Trazado_3" data-name="&lt;Trazado&gt;" points="1258.24 28.31 1286.51 56.58 1328.34 98.41 1384.9 98.41 1314.79 28.3 1286.52 0.03 1258.24 28.31" fill="#ba141a"/><path id="_Trazado_4" data-name="&lt;Trazado&gt;" d="M129.8,167.94c0-31.16,22.33-56.62,54.54-56.62s55.06,26,55.06,57.14h41.81v-.52c0-51.68-40.25-93.49-96.35-93.49S88,116.77,88,168.46H129.8Z" transform="translate(-82.49 -68.91)" fill="#002d3a"/><polygon id="_Trazado_5" data-name="&lt;Trazado&gt;" points="98.39 181.39 126.66 209.66 98.38 237.94 70.11 209.67 70.09 209.69 98.37 237.97 196.78 139.56 140.22 139.56 98.39 181.39" fill="#006c6d"/><polygon id="_Trazado_6" data-name="&lt;Trazado&gt;" points="126.66 209.66 98.39 181.39 56.56 139.56 0 139.56 70.11 209.67 98.38 237.94 126.66 209.66" fill="#00a76d"/><rect id="_Rectángulo_" data-name="&lt;Rectángulo&gt;" x="1268.99" y="104.04" width="13.57" height="13.57" fill="#002d3a"/><rect id="_Rectángulo_2" data-name="&lt;Rectángulo&gt;" x="1286.81" y="104.04" width="13.57" height="13.57" fill="#002d3a"/><rect id="_Rectángulo_3" data-name="&lt;Rectángulo&gt;" x="1268.99" y="123.14" width="13.57" height="13.57" fill="#002d3a"/><rect id="_Rectángulo_4" data-name="&lt;Rectángulo&gt;" x="1286.81" y="123.14" width="13.57" height="13.57" fill="#002d3a"/><circle id="_Trazado_7" data-name="&lt;Trazado&gt;" cx="101.85" cy="103.94" r="21.63" fill="#002d3a"/><text transform="translate(233.11 128.3)" font-size="113" fill="#002d3a" font-family="Barlow-ExtraBold, Barlow" font-weight="700">GPS <tspan x="227.02" y="0" letter-spacing="-0.02em">A</tspan><tspan x="303.52" y="0">U</tspan><tspan x="373.91" y="0" letter-spacing="-0.02em">T</tspan><tspan x="438.32" y="0" letter-spacing="0em">O</tspan><tspan x="508.27" y="0" letter-spacing="-0.01em">-</tspan><tspan x="553.92" y="0">T</tspan><tspan x="620.59" y="0" letter-spacing="0.01em">R</tspan><tspan x="690.76" y="0" letter-spacing="-0.02em">A</tspan><tspan x="766.36" y="0">CK</tspan></text><text transform="translate(334.29 176.57)" font-size="50" fill="#002d3a" font-family="Barlow-ExtraBoldItalic, Barlow" font-weight="700" font-style="italic">GPS DE <tspan x="165" y="0" letter-spacing="0.01em">R</tspan><tspan x="195.15" y="0" letter-spacing="-0.05em">A</tspan><tspan x="226.45" y="0" letter-spacing="0em">S</tspan><tspan x="255.3" y="0">TREO &amp; MONI</tspan><tspan x="535.84" y="0" letter-spacing="-0.02em">T</tspan><tspan x="563.44" y="0">OREO</tspan></text></g></g></svg>